<svg width="36" height="36" viewBox="0 0 36 36" fill="none" xmlns="http://www.w3.org/2000/svg">
<g clip-path="url(#clip0_315_10)">
<path d="M17.8119 2.91943C9.76191 2.91943 3.24316 9.45277 3.24316 17.5028C3.24316 25.5528 9.76191 32.0861 17.8119 32.0861C25.8765 32.0861 32.4098 25.5528 32.4098 17.5028C32.4098 9.45277 25.8765 2.91943 17.8119 2.91943ZM17.8265 29.1694C11.3807 29.1694 6.15983 23.9486 6.15983 17.5028C6.15983 11.0569 11.3807 5.8361 17.8265 5.8361C24.2723 5.8361 29.4932 11.0569 29.4932 17.5028C29.4932 23.9486 24.2723 29.1694 17.8265 29.1694Z" fill="#EFEFEF"/>
<path d="M18.5557 10.2114H16.3682V18.9614L24.0244 23.5552L25.1182 21.7614L18.5557 17.8677V10.2114Z" fill="#EFEFEF"/>
</g>
<defs>
<clipPath id="clip0_315_10">
<rect width="35" height="35" fill="white" transform="translate(0.326172 0.00292969)"/>
</clipPath>
</defs>
</svg>
