<svg xmlns="http://www.w3.org/2000/svg" xmlns:xlink="http://www.w3.org/1999/xlink" width="2379" zoomAndPan="magnify" viewBox="0 0 1784.88 1784.99993" height="2379" preserveAspectRatio="xMidYMid meet" version="1.0"><defs><filter x="0%" y="0%" width="100%" height="100%" id="e3431f53a4"><feColorMatrix values="0 0 0 0 1 0 0 0 0 1 0 0 0 0 1 0 0 0 1 0" color-interpolation-filters="sRGB"/></filter><clipPath id="fb67f5c619"><path d="M 0 0.0585938 L 1784.761719 0.0585938 L 1784.761719 1784.9375 L 0 1784.9375 Z M 0 0.0585938 " clip-rule="nonzero"/></clipPath><mask id="8b793823cf"><g filter="url(#e3431f53a4)"><rect x="-178.488" width="2141.856" fill="#000000" y="-178.499993" height="2141.999916" fill-opacity="0.149"/></g></mask><clipPath id="451f1d1d82"><path d="M 0.429688 0.488281 L 714.378906 0.488281 L 714.378906 714.441406 L 0.429688 714.441406 Z M 0.429688 0.488281 " clip-rule="nonzero"/></clipPath><clipPath id="82f1a24f19"><rect x="0" width="715" y="0" height="715"/></clipPath></defs><g clip-path="url(#fb67f5c619)"><path fill="#ffffff" d="M 0 0.0585938 L 1784.878906 0.0585938 L 1784.878906 1792.4375 L 0 1792.4375 Z M 0 0.0585938 " fill-opacity="1" fill-rule="nonzero"/><path fill="#ffffff" d="M 0 0.0585938 L 1784.878906 0.0585938 L 1784.878906 1784.941406 L 0 1784.941406 Z M 0 0.0585938 " fill-opacity="1" fill-rule="nonzero"/><path fill="#ffffff" d="M 0 0.0585938 L 1784.878906 0.0585938 L 1784.878906 1784.941406 L 0 1784.941406 Z M 0 0.0585938 " fill-opacity="1" fill-rule="nonzero"/><path stroke-linecap="butt" transform="matrix(0.750004, 0, 0, 0.750004, 0, 0.059965)" fill="none" stroke-linejoin="miter" d="M 0 -0.00182832 L 2379.826684 -0.00182832 L 2379.826684 2379.830064 L 0 2379.830064 L 0 -0.00182832 " stroke="#000000" stroke-width="20" stroke-opacity="1" stroke-miterlimit="4"/></g><g mask="url(#8b793823cf)"><g transform="matrix(1, 0, 0, 1, 535, 535)"><g clip-path="url(#82f1a24f19)"><g clip-path="url(#451f1d1d82)"><path fill="#000000" d="M 357.402344 0.488281 C 351.5625 0.488281 345.722656 0.632812 339.886719 0.917969 C 334.054688 1.203125 328.226562 1.632812 322.414062 2.207031 C 316.601562 2.78125 310.804688 3.496094 305.023438 4.351562 C 299.246094 5.207031 293.492188 6.207031 287.761719 7.347656 C 282.03125 8.488281 276.332031 9.765625 270.664062 11.1875 C 265 12.605469 259.371094 14.164062 253.78125 15.859375 C 248.1875 17.554688 242.644531 19.386719 237.140625 21.355469 C 231.640625 23.324219 226.191406 25.425781 220.796875 27.660156 C 215.398438 29.898438 210.058594 32.261719 204.777344 34.761719 C 199.496094 37.257812 194.277344 39.886719 189.125 42.640625 C 183.972656 45.394531 178.894531 48.273438 173.882812 51.277344 C 168.871094 54.277344 163.9375 57.402344 159.078125 60.648438 C 154.222656 63.894531 149.445312 67.257812 144.753906 70.738281 C 140.0625 74.21875 135.457031 77.8125 130.941406 81.519531 C 126.425781 85.222656 122.003906 89.039062 117.671875 92.960938 C 113.34375 96.886719 109.113281 100.914062 104.984375 105.042969 C 100.851562 109.175781 96.824219 113.40625 92.902344 117.734375 C 88.980469 122.0625 85.164062 126.484375 81.457031 131 C 77.75 135.515625 74.160156 140.121094 70.679688 144.8125 C 67.199219 149.507812 63.835938 154.28125 60.589844 159.140625 C 57.34375 163.996094 54.21875 168.929688 51.214844 173.941406 C 48.210938 178.953125 45.332031 184.035156 42.578125 189.1875 C 39.824219 194.339844 37.199219 199.554688 34.703125 204.835938 C 32.203125 210.117188 29.835938 215.457031 27.601562 220.855469 C 25.367188 226.253906 23.261719 231.703125 21.296875 237.203125 C 19.328125 242.703125 17.496094 248.25 15.800781 253.839844 C 14.101562 259.429688 12.546875 265.058594 11.125 270.726562 C 9.707031 276.394531 8.425781 282.089844 7.289062 287.820312 C 6.148438 293.550781 5.148438 299.304688 4.292969 305.085938 C 3.433594 310.863281 2.71875 316.660156 2.148438 322.472656 C 1.574219 328.289062 1.144531 334.113281 0.859375 339.949219 C 0.570312 345.78125 0.429688 351.621094 0.429688 357.464844 C 0.429688 363.304688 0.570312 369.144531 0.859375 374.980469 C 1.144531 380.816406 1.574219 386.640625 2.148438 392.453125 C 2.71875 398.269531 3.433594 404.0625 4.292969 409.84375 C 5.148438 415.621094 6.148438 421.375 7.289062 427.105469 C 8.425781 432.835938 9.707031 438.535156 11.125 444.203125 C 12.546875 449.871094 14.101562 455.5 15.800781 461.089844 C 17.496094 466.679688 19.328125 472.226562 21.296875 477.726562 C 23.261719 483.226562 25.367188 488.675781 27.601562 494.074219 C 29.835938 499.46875 32.203125 504.808594 34.703125 510.089844 C 37.199219 515.371094 39.824219 520.589844 42.578125 525.742188 C 45.332031 530.894531 48.210938 535.976562 51.214844 540.984375 C 54.21875 545.996094 57.34375 550.929688 60.589844 555.789062 C 63.835938 560.648438 67.199219 565.421875 70.679688 570.113281 C 74.160156 574.808594 77.75 579.410156 81.457031 583.925781 C 85.164062 588.441406 88.980469 592.867188 92.902344 597.195312 C 96.824219 601.523438 100.851562 605.753906 104.984375 609.882812 C 109.113281 614.015625 113.34375 618.042969 117.671875 621.964844 C 122.003906 625.890625 126.425781 629.703125 130.941406 633.410156 C 135.457031 637.117188 140.0625 640.710938 144.753906 644.191406 C 149.445312 647.667969 154.222656 651.03125 159.078125 654.277344 C 163.9375 657.523438 168.871094 660.648438 173.882812 663.652344 C 178.894531 666.65625 183.972656 669.535156 189.125 672.289062 C 194.277344 675.042969 199.496094 677.667969 204.777344 680.167969 C 210.058594 682.664062 215.398438 685.03125 220.796875 687.265625 C 226.191406 689.503906 231.640625 691.605469 237.140625 693.574219 C 242.644531 695.539062 248.1875 697.371094 253.78125 699.070312 C 259.371094 700.765625 265 702.324219 270.664062 703.742188 C 276.332031 705.160156 282.03125 706.441406 287.761719 707.582031 C 293.492188 708.71875 299.246094 709.71875 305.023438 710.578125 C 310.804688 711.433594 316.601562 712.148438 322.414062 712.722656 C 328.226562 713.292969 334.054688 713.722656 339.886719 714.011719 C 345.722656 714.296875 351.5625 714.441406 357.402344 714.441406 C 363.246094 714.441406 369.085938 714.296875 374.921875 714.011719 C 380.753906 713.722656 386.578125 713.292969 392.394531 712.722656 C 398.207031 712.148438 404.003906 711.433594 409.785156 710.578125 C 415.5625 709.71875 421.316406 708.71875 427.046875 707.582031 C 432.777344 706.441406 438.476562 705.160156 444.140625 703.742188 C 449.808594 702.324219 455.4375 700.765625 461.027344 699.070312 C 466.621094 697.371094 472.164062 695.539062 477.664062 693.574219 C 483.167969 691.605469 488.617188 689.503906 494.011719 687.265625 C 499.410156 685.03125 504.75 682.664062 510.03125 680.167969 C 515.3125 677.667969 520.527344 675.042969 525.679688 672.289062 C 530.832031 669.535156 535.914062 666.65625 540.925781 663.652344 C 545.9375 660.648438 550.871094 657.523438 555.730469 654.277344 C 560.585938 651.03125 565.363281 647.667969 570.054688 644.191406 C 574.746094 640.710938 579.351562 637.117188 583.867188 633.410156 C 588.382812 629.703125 592.804688 625.890625 597.132812 621.964844 C 601.464844 618.042969 605.691406 614.015625 609.824219 609.882812 C 613.957031 605.753906 617.980469 601.523438 621.90625 597.195312 C 625.828125 592.867188 629.644531 588.441406 633.351562 583.925781 C 637.054688 579.410156 640.648438 574.808594 644.128906 570.113281 C 647.609375 565.421875 650.972656 560.648438 654.21875 555.789062 C 657.464844 550.929688 660.589844 545.996094 663.59375 540.984375 C 666.597656 535.976562 669.476562 530.894531 672.230469 525.742188 C 674.984375 520.589844 677.609375 515.371094 680.105469 510.089844 C 682.605469 504.808594 684.972656 499.46875 687.207031 494.074219 C 689.441406 488.675781 691.542969 483.226562 693.511719 477.726562 C 695.480469 472.226562 697.3125 466.679688 699.007812 461.089844 C 700.703125 455.5 702.261719 449.871094 703.683594 444.203125 C 705.101562 438.535156 706.382812 432.835938 707.519531 427.105469 C 708.660156 421.375 709.660156 415.621094 710.515625 409.84375 C 711.375 404.0625 712.089844 398.269531 712.660156 392.453125 C 713.234375 386.640625 713.664062 380.816406 713.949219 374.980469 C 714.238281 369.144531 714.378906 363.304688 714.378906 357.464844 C 714.378906 351.621094 714.234375 345.785156 713.945312 339.949219 C 713.65625 334.117188 713.222656 328.292969 712.648438 322.476562 C 712.074219 316.664062 711.359375 310.871094 710.5 305.089844 C 709.640625 299.3125 708.640625 293.558594 707.5 287.832031 C 706.359375 282.101562 705.078125 276.402344 703.65625 270.738281 C 702.234375 265.070312 700.675781 259.445312 698.980469 253.855469 C 697.28125 248.265625 695.449219 242.71875 693.480469 237.21875 C 691.511719 231.71875 689.410156 226.273438 687.171875 220.875 C 684.9375 215.480469 682.570312 210.140625 680.070312 204.859375 C 677.570312 199.578125 674.945312 194.363281 672.191406 189.210938 C 669.4375 184.0625 666.558594 178.980469 663.554688 173.96875 C 660.550781 168.960938 657.425781 164.027344 654.179688 159.167969 C 650.933594 154.3125 647.570312 149.539062 644.089844 144.847656 C 640.609375 140.15625 637.015625 135.550781 633.3125 131.035156 C 629.605469 126.519531 625.789062 122.097656 621.867188 117.769531 C 617.945312 113.441406 613.917969 109.210938 609.785156 105.082031 C 605.65625 100.949219 601.425781 96.925781 597.097656 93 C 592.769531 89.078125 588.347656 85.261719 583.832031 81.558594 C 579.316406 77.851562 574.714844 74.257812 570.023438 70.777344 C 565.328125 67.296875 560.554688 63.933594 555.699219 60.6875 C 550.84375 57.441406 545.910156 54.316406 540.898438 51.316406 C 535.886719 48.3125 530.808594 45.433594 525.65625 42.675781 C 520.503906 39.921875 515.289062 37.296875 510.007812 34.796875 C 504.726562 32.300781 499.390625 29.933594 493.992188 27.695312 C 488.597656 25.460938 483.148438 23.355469 477.648438 21.386719 C 472.148438 19.417969 466.605469 17.585938 461.015625 15.886719 C 455.425781 14.191406 449.796875 12.632812 444.128906 11.210938 C 438.464844 9.789062 432.765625 8.507812 427.039062 7.367188 C 421.308594 6.226562 415.554688 5.226562 409.777344 4.367188 C 404 3.507812 398.203125 2.792969 392.390625 2.21875 C 386.578125 1.644531 380.753906 1.210938 374.917969 0.925781 C 369.082031 0.636719 363.246094 0.488281 357.402344 0.488281 Z M 203.429688 470.980469 L 406.429688 470.980469 C 407.105469 470.980469 407.785156 471.015625 408.457031 471.082031 C 409.132812 471.148438 409.804688 471.246094 410.46875 471.378906 C 411.132812 471.511719 411.789062 471.675781 412.4375 471.875 C 413.089844 472.070312 413.726562 472.300781 414.351562 472.558594 C 414.980469 472.816406 415.589844 473.109375 416.1875 473.425781 C 416.789062 473.746094 417.367188 474.09375 417.933594 474.472656 C 418.496094 474.847656 419.039062 475.253906 419.5625 475.683594 C 420.089844 476.113281 420.589844 476.566406 421.070312 477.046875 C 421.550781 477.527344 422.003906 478.027344 422.433594 478.550781 C 422.863281 479.078125 423.269531 479.621094 423.644531 480.183594 C 424.019531 480.75 424.371094 481.328125 424.6875 481.925781 C 425.007812 482.523438 425.296875 483.136719 425.558594 483.765625 C 425.816406 484.390625 426.046875 485.027344 426.242188 485.675781 C 426.4375 486.324219 426.605469 486.984375 426.734375 487.648438 C 426.867188 488.3125 426.96875 488.984375 427.035156 489.65625 C 427.101562 490.332031 427.132812 491.007812 427.132812 491.6875 C 427.132812 492.367188 427.101562 493.042969 427.035156 493.71875 C 426.96875 494.390625 426.867188 495.0625 426.734375 495.726562 C 426.605469 496.390625 426.4375 497.050781 426.242188 497.699219 C 426.046875 498.347656 425.816406 498.984375 425.558594 499.609375 C 425.296875 500.238281 425.007812 500.851562 424.6875 501.449219 C 424.371094 502.046875 424.019531 502.625 423.644531 503.191406 C 423.269531 503.753906 422.863281 504.296875 422.433594 504.824219 C 422.003906 505.347656 421.550781 505.847656 421.070312 506.328125 C 420.589844 506.808594 420.089844 507.261719 419.5625 507.691406 C 419.039062 508.121094 418.496094 508.527344 417.933594 508.902344 C 417.367188 509.28125 416.785156 509.628906 416.1875 509.949219 C 415.589844 510.265625 414.980469 510.558594 414.351562 510.816406 C 413.726562 511.074219 413.089844 511.304688 412.4375 511.5 C 411.789062 511.699219 411.132812 511.863281 410.46875 511.996094 C 409.804688 512.128906 409.132812 512.226562 408.457031 512.292969 C 407.785156 512.359375 407.105469 512.394531 406.429688 512.394531 L 203.429688 512.394531 C 201.457031 512.394531 199.488281 512.300781 197.523438 512.109375 C 195.5625 511.917969 193.613281 511.632812 191.675781 511.25 C 189.742188 510.867188 187.828125 510.390625 185.941406 509.820312 C 184.050781 509.246094 182.195312 508.585938 180.375 507.832031 C 178.550781 507.078125 176.769531 506.238281 175.027344 505.308594 C 173.289062 504.378906 171.597656 503.367188 169.957031 502.269531 C 168.316406 501.175781 166.734375 500 165.210938 498.75 C 163.683594 497.5 162.222656 496.175781 160.828125 494.78125 C 159.433594 493.386719 158.109375 491.925781 156.859375 490.402344 C 155.609375 488.875 154.433594 487.292969 153.339844 485.652344 C 152.246094 484.011719 151.230469 482.320312 150.304688 480.582031 C 149.375 478.839844 148.53125 477.058594 147.777344 475.234375 C 147.027344 473.414062 146.363281 471.558594 145.792969 469.667969 C 145.222656 467.78125 144.746094 465.867188 144.363281 463.933594 C 143.980469 462 143.691406 460.050781 143.5 458.085938 C 143.308594 456.121094 143.214844 454.152344 143.21875 452.179688 L 143.21875 243.230469 C 143.214844 241.257812 143.308594 239.289062 143.5 237.328125 C 143.691406 235.363281 143.980469 233.414062 144.363281 231.480469 C 144.746094 229.542969 145.222656 227.632812 145.792969 225.746094 C 146.363281 223.855469 147.027344 222 147.78125 220.175781 C 148.535156 218.355469 149.375 216.574219 150.304688 214.832031 C 151.234375 213.09375 152.246094 211.402344 153.339844 209.761719 C 154.4375 208.121094 155.609375 206.539062 156.859375 205.011719 C 158.113281 203.488281 159.433594 202.027344 160.828125 200.632812 C 162.222656 199.238281 163.683594 197.914062 165.210938 196.664062 C 166.734375 195.414062 168.316406 194.238281 169.957031 193.144531 C 171.597656 192.046875 173.289062 191.035156 175.03125 190.105469 C 176.769531 189.179688 178.550781 188.335938 180.375 187.582031 C 182.199219 186.828125 184.054688 186.167969 185.941406 185.597656 C 187.828125 185.023438 189.742188 184.546875 191.675781 184.164062 C 193.613281 183.78125 195.5625 183.496094 197.523438 183.304688 C 199.488281 183.113281 201.457031 183.019531 203.429688 183.023438 L 492.101562 183.023438 C 494.070312 183.023438 496.035156 183.125 497.992188 183.320312 C 499.953125 183.519531 501.894531 183.808594 503.824219 184.195312 C 505.753906 184.585938 507.660156 185.066406 509.542969 185.640625 C 511.425781 186.214844 513.273438 186.882812 515.09375 187.636719 C 516.910156 188.394531 518.683594 189.238281 520.417969 190.167969 C 522.152344 191.101562 523.835938 192.113281 525.472656 193.210938 C 527.105469 194.308594 528.683594 195.480469 530.199219 196.734375 C 531.71875 197.984375 533.175781 199.308594 534.5625 200.703125 C 535.953125 202.097656 537.269531 203.554688 538.515625 205.078125 C 539.761719 206.601562 540.929688 208.183594 542.019531 209.824219 C 543.109375 211.460938 544.117188 213.152344 545.039062 214.886719 C 545.964844 216.625 546.800781 218.40625 547.550781 220.222656 C 548.300781 222.042969 548.957031 223.898438 549.523438 225.78125 C 550.09375 227.667969 550.566406 229.574219 550.945312 231.503906 C 551.324219 233.4375 551.609375 235.382812 551.796875 237.339844 C 551.988281 239.300781 552.078125 241.261719 552.074219 243.230469 L 552.074219 373.648438 C 552.074219 374.324219 552.042969 375 551.976562 375.675781 C 551.910156 376.351562 551.808594 377.019531 551.675781 377.6875 C 551.542969 378.351562 551.378906 379.007812 551.183594 379.65625 C 550.988281 380.304688 550.757812 380.945312 550.5 381.570312 C 550.238281 382.195312 549.949219 382.808594 549.628906 383.40625 C 549.308594 384.003906 548.960938 384.585938 548.585938 385.148438 C 548.207031 385.714844 547.804688 386.257812 547.375 386.78125 C 546.945312 387.304688 546.488281 387.808594 546.011719 388.289062 C 545.53125 388.765625 545.03125 389.222656 544.503906 389.652344 C 543.980469 390.082031 543.4375 390.484375 542.875 390.863281 C 542.308594 391.238281 541.726562 391.585938 541.128906 391.90625 C 540.53125 392.226562 539.921875 392.515625 539.292969 392.773438 C 538.667969 393.035156 538.03125 393.261719 537.378906 393.460938 C 536.730469 393.65625 536.074219 393.820312 535.410156 393.953125 C 534.746094 394.085938 534.074219 394.183594 533.398438 394.25 C 532.726562 394.316406 532.046875 394.351562 531.371094 394.351562 C 530.691406 394.351562 530.015625 394.316406 529.339844 394.25 C 528.667969 394.183594 527.996094 394.085938 527.332031 393.953125 C 526.664062 393.820312 526.007812 393.65625 525.359375 393.460938 C 524.710938 393.261719 524.074219 393.035156 523.445312 392.773438 C 522.820312 392.515625 522.207031 392.226562 521.609375 391.90625 C 521.011719 391.585938 520.429688 391.238281 519.867188 390.863281 C 519.304688 390.484375 518.757812 390.082031 518.234375 389.652344 C 517.710938 389.222656 517.210938 388.765625 516.730469 388.289062 C 516.25 387.808594 515.796875 387.304688 515.367188 386.78125 C 514.933594 386.257812 514.53125 385.714844 514.15625 385.148438 C 513.777344 384.585938 513.429688 384.003906 513.109375 383.40625 C 512.789062 382.808594 512.5 382.195312 512.242188 381.570312 C 511.980469 380.945312 511.753906 380.304688 511.558594 379.65625 C 511.359375 379.007812 511.195312 378.351562 511.0625 377.6875 C 510.929688 377.019531 510.832031 376.351562 510.765625 375.675781 C 510.699219 375 510.664062 374.324219 510.664062 373.648438 L 510.664062 344.851562 L 491.390625 329.144531 C 490.203125 328.175781 488.949219 327.3125 487.621094 326.550781 C 486.296875 325.789062 484.914062 325.144531 483.480469 324.609375 C 482.050781 324.074219 480.582031 323.664062 479.082031 323.371094 C 477.578125 323.078125 476.0625 322.910156 474.535156 322.867188 C 473.007812 322.824219 471.484375 322.910156 469.96875 323.117188 C 468.453125 323.324219 466.964844 323.652344 465.503906 324.105469 C 464.042969 324.558594 462.628906 325.128906 461.261719 325.8125 C 459.894531 326.5 458.59375 327.292969 457.355469 328.191406 L 410 363.414062 L 423.324219 374.121094 C 424.160156 374.792969 424.9375 375.519531 425.660156 376.308594 C 426.382812 377.097656 427.039062 377.9375 427.628906 378.828125 C 428.222656 379.71875 428.742188 380.652344 429.1875 381.621094 C 429.636719 382.59375 430.003906 383.59375 430.296875 384.621094 C 430.589844 385.652344 430.800781 386.695312 430.933594 387.757812 C 431.0625 388.820312 431.113281 389.882812 431.078125 390.953125 C 431.042969 392.023438 430.929688 393.082031 430.730469 394.132812 C 430.53125 395.183594 430.253906 396.210938 429.894531 397.21875 C 429.539062 398.226562 429.105469 399.203125 428.597656 400.144531 C 428.089844 401.082031 427.511719 401.980469 426.863281 402.832031 C 426.214844 403.683594 425.507812 404.480469 424.738281 405.21875 C 423.964844 405.960938 423.144531 406.640625 422.269531 407.253906 C 421.390625 407.867188 420.476562 408.410156 419.515625 408.882812 C 418.554688 409.355469 417.566406 409.75 416.542969 410.070312 C 415.523438 410.386719 414.484375 410.625 413.425781 410.785156 C 412.371094 410.941406 411.304688 411.015625 410.238281 411.011719 C 407.839844 411.035156 405.511719 410.640625 403.257812 409.820312 C 401.003906 409 398.96875 407.8125 397.148438 406.25 L 363.117188 378.644531 C 363.050781 378.644531 362.992188 378.625 362.945312 378.578125 C 362.898438 378.53125 362.875 378.472656 362.878906 378.40625 L 302.191406 329.144531 C 301.007812 328.175781 299.753906 327.3125 298.425781 326.550781 C 297.097656 325.789062 295.71875 325.140625 294.285156 324.609375 C 292.851562 324.074219 291.386719 323.660156 289.882812 323.367188 C 288.382812 323.078125 286.867188 322.910156 285.339844 322.867188 C 283.808594 322.824219 282.289062 322.90625 280.773438 323.113281 C 279.257812 323.320312 277.769531 323.652344 276.308594 324.105469 C 274.847656 324.558594 273.433594 325.128906 272.066406 325.8125 C 270.699219 326.5 269.398438 327.292969 268.160156 328.191406 L 184.628906 390.304688 L 184.628906 452.179688 C 184.632812 452.796875 184.667969 453.40625 184.734375 454.019531 C 184.800781 454.628906 184.894531 455.234375 185.019531 455.835938 C 185.144531 456.4375 185.296875 457.03125 185.480469 457.617188 C 185.664062 458.203125 185.871094 458.78125 186.109375 459.347656 C 186.347656 459.914062 186.613281 460.464844 186.902344 461.007812 C 187.195312 461.546875 187.511719 462.070312 187.855469 462.582031 C 188.199219 463.089844 188.5625 463.582031 188.953125 464.058594 C 189.34375 464.53125 189.757812 464.984375 190.191406 465.417969 C 190.625 465.855469 191.078125 466.265625 191.554688 466.65625 C 192.027344 467.046875 192.519531 467.414062 193.027344 467.753906 C 193.539062 468.097656 194.0625 468.414062 194.605469 468.707031 C 195.144531 468.996094 195.699219 469.261719 196.261719 469.5 C 196.828125 469.738281 197.40625 469.949219 197.992188 470.128906 C 198.578125 470.3125 199.171875 470.464844 199.773438 470.589844 C 200.375 470.714844 200.980469 470.808594 201.589844 470.875 C 202.203125 470.941406 202.8125 470.976562 203.429688 470.980469 Z M 550.886719 486.453125 L 526.132812 486.453125 L 526.132812 511.203125 C 526.132812 511.878906 526.101562 512.554688 526.035156 513.230469 C 525.96875 513.90625 525.867188 514.574219 525.738281 515.242188 C 525.605469 515.90625 525.441406 516.5625 525.242188 517.210938 C 525.046875 517.859375 524.816406 518.5 524.558594 519.125 C 524.300781 519.75 524.007812 520.363281 523.691406 520.960938 C 523.371094 521.558594 523.023438 522.140625 522.644531 522.703125 C 522.269531 523.269531 521.863281 523.8125 521.433594 524.335938 C 521.003906 524.859375 520.550781 525.363281 520.070312 525.84375 C 519.589844 526.320312 519.089844 526.777344 518.566406 527.207031 C 518.039062 527.636719 517.496094 528.039062 516.933594 528.417969 C 516.367188 528.792969 515.789062 529.140625 515.191406 529.460938 C 514.59375 529.78125 513.980469 530.070312 513.351562 530.332031 C 512.726562 530.589844 512.089844 530.816406 511.441406 531.015625 C 510.792969 531.210938 510.132812 531.375 509.46875 531.507812 C 508.804688 531.640625 508.132812 531.738281 507.460938 531.804688 C 506.785156 531.871094 506.109375 531.90625 505.429688 531.90625 C 504.75 531.90625 504.074219 531.871094 503.402344 531.804688 C 502.726562 531.738281 502.054688 531.640625 501.390625 531.507812 C 500.726562 531.375 500.070312 531.210938 499.417969 531.015625 C 498.769531 530.816406 498.132812 530.589844 497.507812 530.328125 C 496.878906 530.070312 496.269531 529.78125 495.667969 529.460938 C 495.070312 529.140625 494.492188 528.792969 493.925781 528.417969 C 493.363281 528.039062 492.820312 527.636719 492.296875 527.207031 C 491.769531 526.777344 491.269531 526.320312 490.789062 525.84375 C 490.308594 525.363281 489.855469 524.859375 489.425781 524.335938 C 488.996094 523.8125 488.589844 523.269531 488.214844 522.703125 C 487.839844 522.140625 487.488281 521.558594 487.171875 520.960938 C 486.851562 520.363281 486.5625 519.75 486.300781 519.125 C 486.042969 518.5 485.8125 517.859375 485.617188 517.210938 C 485.421875 516.5625 485.253906 515.90625 485.125 515.242188 C 484.992188 514.574219 484.890625 513.90625 484.824219 513.230469 C 484.757812 512.554688 484.726562 511.878906 484.726562 511.203125 L 484.726562 486.453125 L 460.214844 486.453125 C 459.535156 486.453125 458.859375 486.417969 458.183594 486.351562 C 457.507812 486.285156 456.839844 486.1875 456.171875 486.054688 C 455.507812 485.921875 454.851562 485.757812 454.203125 485.558594 C 453.554688 485.363281 452.917969 485.132812 452.289062 484.875 C 451.664062 484.617188 451.050781 484.328125 450.453125 484.007812 C 449.855469 483.6875 449.273438 483.339844 448.710938 482.960938 C 448.144531 482.585938 447.601562 482.183594 447.078125 481.75 C 446.554688 481.320312 446.050781 480.867188 445.574219 480.386719 C 445.09375 479.90625 444.636719 479.40625 444.207031 478.882812 C 443.777344 478.355469 443.375 477.8125 442.996094 477.25 C 442.621094 476.6875 442.273438 476.105469 441.953125 475.507812 C 441.632812 474.910156 441.34375 474.296875 441.085938 473.671875 C 440.824219 473.042969 440.597656 472.40625 440.398438 471.757812 C 440.203125 471.109375 440.039062 470.449219 439.90625 469.785156 C 439.773438 469.121094 439.675781 468.449219 439.609375 467.777344 C 439.542969 467.101562 439.507812 466.425781 439.507812 465.746094 C 439.507812 465.070312 439.542969 464.390625 439.609375 463.71875 C 439.675781 463.042969 439.773438 462.371094 439.90625 461.707031 C 440.039062 461.042969 440.203125 460.386719 440.398438 459.738281 C 440.597656 459.085938 440.824219 458.449219 441.085938 457.824219 C 441.34375 457.195312 441.632812 456.585938 441.953125 455.988281 C 442.273438 455.386719 442.621094 454.808594 442.996094 454.242188 C 443.375 453.679688 443.777344 453.136719 444.207031 452.613281 C 444.636719 452.085938 445.09375 451.585938 445.574219 451.105469 C 446.050781 450.625 446.554688 450.171875 447.078125 449.742188 C 447.601562 449.3125 448.144531 448.910156 448.710938 448.53125 C 449.273438 448.15625 449.855469 447.804688 450.453125 447.488281 C 451.050781 447.167969 451.664062 446.878906 452.289062 446.617188 C 452.917969 446.359375 453.554688 446.128906 454.203125 445.933594 C 454.851562 445.738281 455.507812 445.574219 456.171875 445.441406 C 456.839844 445.308594 457.507812 445.207031 458.183594 445.140625 C 458.859375 445.074219 459.535156 445.042969 460.214844 445.042969 L 484.726562 445.042969 L 484.726562 420.53125 C 484.726562 419.851562 484.757812 419.175781 484.824219 418.5 C 484.890625 417.824219 484.992188 417.15625 485.125 416.492188 C 485.253906 415.824219 485.421875 415.167969 485.617188 414.519531 C 485.8125 413.871094 486.042969 413.234375 486.300781 412.605469 C 486.5625 411.980469 486.851562 411.367188 487.171875 410.769531 C 487.488281 410.171875 487.839844 409.589844 488.214844 409.027344 C 488.589844 408.460938 488.996094 407.917969 489.425781 407.394531 C 489.855469 406.871094 490.308594 406.367188 490.789062 405.890625 C 491.269531 405.410156 491.769531 404.953125 492.296875 404.523438 C 492.820312 404.09375 493.363281 403.691406 493.925781 403.3125 C 494.492188 402.9375 495.074219 402.589844 495.671875 402.269531 C 496.269531 401.949219 496.878906 401.660156 497.507812 401.402344 C 498.132812 401.140625 498.769531 400.914062 499.421875 400.714844 C 500.070312 400.519531 500.726562 400.355469 501.390625 400.222656 C 502.054688 400.089844 502.726562 399.992188 503.402344 399.925781 C 504.074219 399.859375 504.753906 399.824219 505.429688 399.824219 C 506.109375 399.824219 506.785156 399.859375 507.460938 399.925781 C 508.136719 399.992188 508.804688 400.089844 509.46875 400.222656 C 510.136719 400.355469 510.792969 400.519531 511.441406 400.714844 C 512.089844 400.914062 512.726562 401.140625 513.355469 401.402344 C 513.980469 401.660156 514.59375 401.949219 515.191406 402.269531 C 515.789062 402.589844 516.371094 402.9375 516.933594 403.3125 C 517.496094 403.691406 518.042969 404.09375 518.566406 404.523438 C 519.089844 404.953125 519.59375 405.410156 520.070312 405.890625 C 520.550781 406.367188 521.003906 406.871094 521.4375 407.394531 C 521.867188 407.917969 522.269531 408.460938 522.644531 409.027344 C 523.023438 409.589844 523.371094 410.171875 523.691406 410.769531 C 524.011719 411.367188 524.300781 411.980469 524.558594 412.605469 C 524.820312 413.234375 525.046875 413.871094 525.246094 414.519531 C 525.441406 415.167969 525.605469 415.824219 525.738281 416.492188 C 525.871094 417.15625 525.96875 417.824219 526.035156 418.5 C 526.101562 419.175781 526.136719 419.851562 526.136719 420.53125 L 526.136719 445.042969 L 550.886719 445.042969 C 551.5625 445.042969 552.242188 445.074219 552.914062 445.140625 C 553.589844 445.207031 554.261719 445.308594 554.925781 445.441406 C 555.589844 445.574219 556.246094 445.738281 556.894531 445.933594 C 557.546875 446.128906 558.183594 446.359375 558.808594 446.617188 C 559.4375 446.878906 560.046875 447.167969 560.644531 447.488281 C 561.246094 447.804688 561.824219 448.15625 562.390625 448.53125 C 562.953125 448.910156 563.496094 449.3125 564.019531 449.742188 C 564.546875 450.171875 565.046875 450.625 565.527344 451.105469 C 566.007812 451.585938 566.460938 452.085938 566.890625 452.613281 C 567.320312 453.136719 567.726562 453.679688 568.101562 454.242188 C 568.476562 454.808594 568.828125 455.386719 569.144531 455.988281 C 569.464844 456.585938 569.753906 457.195312 570.015625 457.824219 C 570.273438 458.449219 570.503906 459.085938 570.699219 459.738281 C 570.894531 460.386719 571.0625 461.042969 571.191406 461.707031 C 571.324219 462.371094 571.425781 463.042969 571.492188 463.71875 C 571.558594 464.390625 571.589844 465.070312 571.589844 465.746094 C 571.589844 466.425781 571.558594 467.101562 571.492188 467.777344 C 571.425781 468.449219 571.324219 469.121094 571.191406 469.785156 C 571.0625 470.449219 570.894531 471.109375 570.699219 471.757812 C 570.503906 472.40625 570.273438 473.042969 570.015625 473.671875 C 569.753906 474.296875 569.464844 474.910156 569.144531 475.507812 C 568.828125 476.105469 568.476562 476.6875 568.101562 477.25 C 567.726562 477.8125 567.320312 478.355469 566.890625 478.882812 C 566.460938 479.40625 566.007812 479.90625 565.527344 480.386719 C 565.046875 480.867188 564.546875 481.320312 564.019531 481.75 C 563.496094 482.183594 562.953125 482.585938 562.390625 482.960938 C 561.824219 483.339844 561.246094 483.6875 560.644531 484.007812 C 560.046875 484.324219 559.4375 484.617188 558.808594 484.875 C 558.183594 485.132812 557.546875 485.363281 556.894531 485.558594 C 556.246094 485.757812 555.589844 485.921875 554.925781 486.054688 C 554.261719 486.1875 553.589844 486.285156 552.914062 486.351562 C 552.242188 486.417969 551.5625 486.453125 550.886719 486.453125 Z M 550.886719 486.453125 " fill-opacity="1" fill-rule="nonzero"/></g></g></g></g></svg>